<?xml version="1.0" encoding="UTF-8" standalone="no"?>
<svg width="16px" height="15px" viewBox="0 0 16 15" version="1.1" xmlns="http://www.w3.org/2000/svg" xmlns:xlink="http://www.w3.org/1999/xlink" xmlns:sketch="http://www.bohemiancoding.com/sketch/ns">
    <!-- Generator: Sketch 3.3.3 (12081) - http://www.bohemiancoding.com/sketch -->
    <title>chat-sidebar-breakpoint-active</title>
    <desc>Created with Sketch.</desc>
    <defs></defs>
    <g id="Page-2" stroke="none" stroke-width="1" fill="none" fill-rule="evenodd" sketch:type="MSPage">
        <g id="Courselet---Sidebar" sketch:type="MSArtboardGroup" transform="translate(-28.000000, -303.000000)" fill="#B1B0B9">
            <g id="Sidebar" sketch:type="MSLayerGroup">
                <g id="Lessons" transform="translate(20.000000, 237.000000)" sketch:type="MSShapeGroup">
                    <path d="M16,71 C15.448,71 14.999,71.448 14.999,72 C14.999,72.553 15.448,73 16,73 C16.552,73 17,72.553 17,72 C17,71.448 16.552,71 16,71 L16,71 Z M11.999,71 C11.448,71 11,71.448 11,72 C11,72.553 11.448,73 11.999,73 C12.552,73 13,72.553 13,72 C13,71.448 12.552,71 11.999,71 L11.999,71 Z M22.499,66 L9.5,66 C8.671,66 8,66.672 8,67.5 L8,77.5 C8,78.328 8.671,79 9.5,79 L13.994,79 L16,81.006 L18.006,79 L22.499,79 C23.329,79 23.999,78.328 23.999,77.5 L23.999,67.5 C23.999,66.672 23.329,66 22.499,66 L22.499,66 Z M23,77.5 C23,77.776 22.776,78.001 22.499,78.001 L17.505,78.001 L16,79.506 L14.495,78.001 L9.5,78.001 C9.224,78.001 8.999,77.776 8.999,77.5 L8.999,67.5 C8.999,67.224 9.224,67 9.5,67 L22.499,67 C22.776,67 23,67.224 23,67.5 L23,77.5 L23,77.5 Z M20,71 C19.448,71 19,71.448 19,72 C19,72.553 19.448,73 20,73 C20.552,73 20.999,72.553 20.999,72 C20.999,71.448 20.552,71 20,71 L20,71 Z" id="chat-sidebar-breakpoint-active"></path>
                </g>
            </g>
        </g>
    </g>
</svg>