<?xml version="1.0" encoding="UTF-8" standalone="no"?>
<svg width="15px" height="15px" viewBox="0 0 15 15" version="1.1" xmlns="http://www.w3.org/2000/svg" xmlns:xlink="http://www.w3.org/1999/xlink" xmlns:sketch="http://www.bohemiancoding.com/sketch/ns">
    <!-- Generator: Sketch 3.3.3 (12081) - http://www.bohemiancoding.com/sketch -->
    <title>chat-meta-duration</title>
    <desc>Created with Sketch.</desc>
    <defs></defs>
    <g id="Page-2" stroke="none" stroke-width="1" fill="none" fill-rule="evenodd" sketch:type="MSPage">
        <g id="Courselet---Introduction" sketch:type="MSArtboardGroup" transform="translate(-658.000000, -873.000000)" fill="#7F7F7F">
            <g id="Footer" sketch:type="MSLayerGroup" transform="translate(0.000000, 871.000000)">
                <g id="Meta" transform="translate(499.000000, 0.000000)" sketch:type="MSShapeGroup">
                    <path d="M166.001,15 L167.001,15 L167.001,14 L166.001,14 L166.001,15 Z M161.001,10 L162.001,10 L162.001,9.001 L161.001,9.001 L161.001,10 Z M169.001,6.002 L170.001,6.002 L170.001,5.002 L169.001,5.002 L169.001,6.002 Z M163.001,13.002 L164.001,13.002 L164.001,12.002 L163.001,12.002 L163.001,13.002 Z M167.001,4.001 L166.001,4.001 L166.001,10 L171.001,10 L171.001,9 L167.001,9 L167.001,4.001 L167.001,4.001 Z M166.501,2 C162.359,2 159,5.358 159,9.5 C159,13.643 162.359,17 166.501,17 C170.643,17 174.001,13.643 174.001,9.5 C174.001,5.358 170.643,2 166.501,2 L166.501,2 Z M166.501,16 C162.911,16 160.001,13.091 160.001,9.5 C160.001,5.91 162.911,3.001 166.501,3.001 C170.09,3.001 173.001,5.91 173.001,9.5 C173.001,13.091 170.09,16 166.501,16 L166.501,16 Z M169.001,13.002 L170.001,13.002 L170.001,12.002 L169.001,12.002 L169.001,13.002 Z M163.001,6.002 L164.001,6.002 L164.001,5.002 L163.001,5.002 L163.001,6.002 Z" id="chat-meta-duration"></path>
                </g>
            </g>
        </g>
    </g>
</svg>