<?xml version="1.0" encoding="UTF-8" standalone="no"?>
<svg width="44px" height="44px" viewBox="0 0 44 44" version="1.1" xmlns="http://www.w3.org/2000/svg" xmlns:xlink="http://www.w3.org/1999/xlink" xmlns:sketch="http://www.bohemiancoding.com/sketch/ns">
    <!-- Generator: Sketch 3.3.3 (12081) - http://www.bohemiancoding.com/sketch -->
    <title>courselets-logo</title>
    <desc>Created with Sketch.</desc>
    <defs></defs>
    <g id="Page-2" stroke="none" stroke-width="1" fill="none" fill-rule="evenodd" sketch:type="MSPage">
        <g id="Courselet---Introduction" sketch:type="MSArtboardGroup" transform="translate(-618.000000, -44.000000)" fill="#FFFFFF">
            <g id="Hero" sketch:type="MSLayerGroup">
                <path d="M618,48.00181 C618,45.7916714 619.793091,44 622.00181,44 L657.99819,44 C660.208329,44 662,45.7930912 662,48.00181 L662,83.99819 C662,86.2083286 660.206909,88 657.99819,88 L622.00181,88 C619.791671,88 618,86.2069088 618,83.99819 L618,48.00181 Z M640.909341,77 C639.398344,77 637.978029,76.7280247 636.648352,76.1840659 C635.318675,75.6401072 634.165298,74.8795836 633.188187,73.9024725 C632.211076,72.9253614 631.435442,71.7669481 630.861264,70.4271978 C630.287085,69.0874475 630,67.631876 630,66.0604396 L630,66 C630,64.4688568 630.282048,63.0334316 630.846154,61.6936813 C631.410259,60.353931 632.185893,59.1854445 633.173077,58.1881868 C634.160261,57.1909291 635.333784,56.4102592 636.693681,55.8461538 C638.053578,55.2820485 639.539369,55 641.151099,55 C642.239016,55 643.226186,55.1057682 644.112637,55.3173077 C644.999089,55.5288472 645.809978,55.831042 646.54533,56.2239011 C647.280681,56.6167602 647.94551,57.0851621 648.539835,57.6291209 C649.13416,58.1730796 649.663001,58.767396 650.126374,59.4120879 L645.714286,62.8269231 C645.109887,62.0613515 644.445059,61.4569619 643.71978,61.0137363 C642.994502,60.5705106 642.118137,60.3489011 641.090659,60.3489011 C640.345234,60.3489011 639.665296,60.4949619 639.050824,60.7870879 C638.436352,61.0792139 637.907511,61.4771037 637.464286,61.9807692 C637.02106,62.4844348 636.673536,63.0787512 636.421703,63.7637363 C636.169871,64.4487214 636.043956,65.1739888 636.043956,65.9395604 L636.043956,66 C636.043956,66.7857182 636.169871,67.5260954 636.421703,68.2211538 C636.673536,68.9162123 637.02106,69.5155652 637.464286,70.0192308 C637.907511,70.5228963 638.436352,70.9207861 639.050824,71.2129121 C639.665296,71.5050381 640.345234,71.6510989 641.090659,71.6510989 C641.634618,71.6510989 642.133239,71.5906599 642.586538,71.4697802 C643.039837,71.3489005 643.452837,71.1726202 643.825549,70.9409341 C644.198262,70.7092479 644.550823,70.4372726 644.883242,70.125 C645.215661,69.8127274 645.543039,69.4652034 645.865385,69.0824176 L650.277473,72.2252747 C649.773807,72.9102598 649.22482,73.5448689 648.630495,74.1291209 C648.036169,74.7133729 647.361268,75.2170309 646.605769,75.6401099 C645.850271,76.0631889 645.004126,76.3956032 644.067308,76.6373626 C643.13049,76.8791221 642.077845,77 640.909341,77 Z" id="courselets-logo" sketch:type="MSShapeGroup"></path>
            </g>
        </g>
    </g>
</svg>