<?xml version="1.0" encoding="UTF-8" standalone="no"?>
<svg width="24px" height="24px" viewBox="0 0 24 24" version="1.1" xmlns="http://www.w3.org/2000/svg" xmlns:xlink="http://www.w3.org/1999/xlink">
    <!-- Generator: Sketch 42 (36781) - http://www.bohemiancoding.com/sketch -->
    <title>courselets-logo</title>
    <desc>Created with Sketch.</desc>
    <defs></defs>
    <g id="Courses" stroke="none" stroke-width="1" fill="none" fill-rule="evenodd">
        <g id="1.1.1-Create-Course" transform="translate(-24.000000, -18.000000)" fill="#B1B0B9">
            <g id="Sidebar">
                <g id="Topbar">
                    <g id="My-courses" transform="translate(24.000000, 0.000000)">
                        <path d="M0,21.990053 C0,19.7864076 1.78429328,18 3.99005301,18 L20.009947,18 C22.2135924,18 24,19.7842933 24,21.990053 L24,38.009947 C24,40.2135924 22.2157067,42 20.009947,42 L3.99005301,42 C1.78640758,42 0,40.2157067 0,38.009947 L0,21.990053 Z M12.496004,36 C13.1333698,36 13.7075399,35.9340666 14.2185315,35.8021978 C14.729523,35.670329 15.1910569,35.4890121 15.6031469,35.2582418 C16.0152368,35.0274714 16.383365,34.7527488 16.7075425,34.4340659 C17.0317199,34.115383 17.3311675,33.7692326 17.6058941,33.3956044 L15.1993007,31.6813187 C15.0234756,31.8901109 14.844906,32.0796695 14.6635864,32.25 C14.4822668,32.4203305 14.2899611,32.5686807 14.0866633,32.6950549 C13.8833656,32.8214292 13.6580931,32.9175821 13.4108392,32.9835165 C13.1635852,33.0494509 12.8916099,33.0824176 12.5949051,33.0824176 C12.1883097,33.0824176 11.8174342,33.002748 11.4822677,32.8434066 C11.1471012,32.6840651 10.8586426,32.4670343 10.6168831,32.1923077 C10.3751237,31.917581 10.1855651,31.5906612 10.0482018,31.2115385 C9.91083847,30.8324157 9.84215784,30.4285736 9.84215784,30 L9.84215784,29.967033 C9.84215784,29.5494485 9.91083847,29.153848 10.0482018,28.7802198 C10.1855651,28.4065915 10.3751237,28.082419 10.6168831,27.8076923 C10.8586426,27.5329657 11.1471012,27.3159349 11.4822677,27.1565934 C11.8174342,26.997252 12.1883097,26.9175824 12.5949051,26.9175824 C13.1553475,26.9175824 13.6333647,27.0384603 14.028971,27.2802198 C14.4245774,27.5219792 14.7872111,27.8516463 15.1168831,28.2692308 L17.5234765,26.4065934 C17.270728,26.0549433 16.9822694,25.7307707 16.6580919,25.4340659 C16.3339145,25.1373612 15.9712807,24.8818692 15.5701798,24.6675824 C15.1690789,24.4532956 14.7267756,24.2884621 14.2432567,24.1730769 C13.7597378,24.0576917 13.2212817,24 12.6278721,24 C11.7487469,24 10.9383154,24.1538446 10.1965534,24.4615385 C9.4547915,24.7692323 8.81468801,25.1950522 8.27622378,25.739011 C7.73775955,26.2829698 7.31468685,26.920326 7.00699301,27.6510989 C6.69929916,28.3818718 6.54545455,29.164831 6.54545455,30 L6.54545455,30.032967 C6.54545455,30.8901142 6.70204639,31.6840623 7.01523477,32.4148352 C7.32842314,33.145608 7.75149584,33.7774699 8.28446553,34.3104396 C8.81743523,34.8434093 9.44654982,35.2582403 10.1718282,35.5549451 C10.8971065,35.8516498 11.6718241,36 12.496004,36 Z" id="courselets-logo"></path>
                    </g>
                </g>
            </g>
        </g>
    </g>
</svg>