<?xml version="1.0" encoding="UTF-8" standalone="no"?>
<svg width="15px" height="15px" viewBox="0 0 15 15" version="1.1" xmlns="http://www.w3.org/2000/svg" xmlns:xlink="http://www.w3.org/1999/xlink">
    <!-- Generator: Sketch 42 (36781) - http://www.bohemiancoding.com/sketch -->
    <title>sidebar-add</title>
    <desc>Created with Sketch.</desc>
    <defs></defs>
    <g id="Sidebar" stroke="none" stroke-width="1" fill="none" fill-rule="evenodd">
        <g transform="translate(-24.000000, -414.000000)" id="Units" fill="#B1B0B9">
            <g>
                <g transform="translate(24.000000, 275.000000)">
                    <path d="M10.478,146.011 L7.989,146.011 L7.989,143.523 C7.989,143.236 7.771,143.002 7.5,143.002 C7.231,143.002 7.012,143.236 7.012,143.523 L7.012,146.011 L4.524,146.011 C4.236,146.011 4.003,146.23 4.003,146.499 C4.003,146.77 4.236,146.988 4.524,146.988 L7.012,146.988 L7.012,149.477 C7.012,149.765 7.231,149.998 7.5,149.998 C7.771,149.998 7.989,149.765 7.989,149.477 L7.989,146.988 L10.478,146.988 C10.765,146.988 10.999,146.77 10.999,146.499 C10.999,146.23 10.765,146.011 10.478,146.011 M7.5,153 C3.911,153 1,150.09 1,146.499 C1,142.91 3.911,140 7.5,140 C11.09,140 14,142.91 14,146.499 C14,150.09 11.09,153 7.5,153 M7.5,139 C3.359,139 0,142.358 0,146.499 C0,150.642 3.359,154 7.5,154 C11.643,154 15,150.642 15,146.499 C15,142.358 11.643,139 7.5,139" id="sidebar-add"></path>
                </g>
            </g>
        </g>
    </g>
</svg>