<?xml version="1.0" encoding="UTF-8" standalone="no"?>
<svg width="36px" height="36px" viewBox="0 0 36 36" version="1.1" xmlns="http://www.w3.org/2000/svg" xmlns:xlink="http://www.w3.org/1999/xlink">
    <!-- Generator: Sketch 42 (36781) - http://www.bohemiancoding.com/sketch -->
    <title>courselets-logo</title>
    <desc>Created with Sketch.</desc>
    <defs></defs>
    <g id="Accounts" stroke="none" stroke-width="1" fill="none" fill-rule="evenodd">
        <g id="4.-Sign-Up" transform="translate(-622.000000, -12.000000)" fill="#43B02A">
            <g id="Content">
                <g id="Topbar">
                    <path d="M622,30 C622,20.0588745 630.056689,12 640,12 C649.941125,12 658,20.0566887 658,30 C658,39.9411255 649.943311,48 640,48 C630.058875,48 622,39.9433113 622,30 Z M640.744006,39 C641.700055,39 642.56131,38.9010999 643.327797,38.7032967 C644.094285,38.5054935 644.786585,38.2335182 645.40472,37.8873626 C646.022855,37.5412071 646.575048,37.1291233 647.061314,36.6510989 C647.54758,36.1730745 647.996751,35.653849 648.408841,35.0934066 L644.798951,32.521978 C644.535213,32.8351664 644.267359,33.1195042 643.99538,33.375 C643.7234,33.6304958 643.434942,33.853021 643.129995,34.0425824 C642.825048,34.2321438 642.48714,34.3763731 642.116259,34.4752747 C641.745378,34.5741763 641.337415,34.6236264 640.892358,34.6236264 C640.282464,34.6236264 639.726151,34.5041221 639.223402,34.2651099 C638.720652,34.0260977 638.287964,33.7005515 637.925325,33.2884615 C637.562685,32.8763716 637.278348,32.3859919 637.072303,31.8173077 C636.866258,31.2486235 636.763237,30.6428604 636.763237,30 L636.763237,29.9505495 C636.763237,29.3241727 636.866258,28.730772 637.072303,28.1703297 C637.278348,27.6098873 637.562685,27.1236284 637.925325,26.7115385 C638.287964,26.2994485 638.720652,25.9739023 639.223402,25.7348901 C639.726151,25.4958779 640.282464,25.3763736 640.892358,25.3763736 C641.733021,25.3763736 642.450047,25.5576905 643.043457,25.9203297 C643.636866,26.2829688 644.180817,26.7774694 644.675325,27.4038462 L648.285215,24.6098901 C647.906092,24.0824149 647.473404,23.5961561 646.987138,23.1510989 C646.500872,22.7060417 645.956921,22.3228038 645.35527,22.0013736 C644.753618,21.6799434 644.090163,21.4326932 643.364885,21.2596154 C642.639607,21.0865376 641.831923,21 640.941808,21 C639.62312,21 638.407473,21.2307669 637.29483,21.6923077 C636.182187,22.1538485 635.222032,22.7925783 634.414336,23.6085165 C633.606639,24.4244546 632.97203,25.380489 632.51049,26.4766484 C632.048949,27.5728077 631.818182,28.7472465 631.818182,30 L631.818182,30.0494505 C631.818182,31.3351713 632.05307,32.5260934 632.522852,33.6222527 C632.992635,34.7184121 633.627244,35.6662048 634.426698,36.4656593 C635.226153,37.2651139 636.169825,37.8873604 637.257742,38.3324176 C638.34566,38.7774748 639.507736,39 640.744006,39 Z" id="courselets-logo"></path>
                </g>
            </g>
        </g>
    </g>
</svg>