<?xml version="1.0" encoding="UTF-8" standalone="no"?>
<svg width="16px" height="15px" viewBox="0 0 16 15" version="1.1" xmlns="http://www.w3.org/2000/svg" xmlns:xlink="http://www.w3.org/1999/xlink" xmlns:sketch="http://www.bohemiancoding.com/sketch/ns">
    <!-- Generator: Sketch 3.3.3 (12081) - http://www.bohemiancoding.com/sketch -->
    <title>chat-meta-lessons</title>
    <desc>Created with Sketch.</desc>
    <defs></defs>
    <g id="Page-2" stroke="none" stroke-width="1" fill="none" fill-rule="evenodd" sketch:type="MSPage">
        <g id="Courselet---Introduction" sketch:type="MSArtboardGroup" transform="translate(-499.000000, -873.000000)" fill="#7F7F7F">
            <g id="Footer" sketch:type="MSLayerGroup" transform="translate(0.000000, 871.000000)">
                <g id="Meta" transform="translate(499.000000, 0.000000)" sketch:type="MSShapeGroup">
                    <path d="M8,7 C7.448,7 6.999,7.448 6.999,8 C6.999,8.553 7.448,9 8,9 C8.552,9 9,8.553 9,8 C9,7.448 8.552,7 8,7 L8,7 Z M3.999,7 C3.448,7 3,7.448 3,8 C3,8.553 3.448,9 3.999,9 C4.552,9 5,8.553 5,8 C5,7.448 4.552,7 3.999,7 L3.999,7 Z M14.499,2 L1.5,2 C0.671,2 0,2.672 0,3.5 L0,13.5 C0,14.328 0.671,15 1.5,15 L5.994,15 L8,17.006 L10.006,15 L14.499,15 C15.329,15 15.999,14.328 15.999,13.5 L15.999,3.5 C15.999,2.672 15.329,2 14.499,2 L14.499,2 Z M15,13.5 C15,13.776 14.776,14.001 14.499,14.001 L9.505,14.001 L8,15.506 L6.495,14.001 L1.5,14.001 C1.224,14.001 0.999,13.776 0.999,13.5 L0.999,3.5 C0.999,3.224 1.224,3 1.5,3 L14.499,3 C14.776,3 15,3.224 15,3.5 L15,13.5 L15,13.5 Z M12,7 C11.448,7 11,7.448 11,8 C11,8.553 11.448,9 12,9 C12.552,9 12.999,8.553 12.999,8 C12.999,7.448 12.552,7 12,7 L12,7 Z" id="chat-meta-lessons"></path>
                </g>
            </g>
        </g>
    </g>
</svg>