<?xml version="1.0" encoding="UTF-8" standalone="no"?>
<svg width="44px" height="44px" viewBox="0 0 44 44" version="1.1" xmlns="http://www.w3.org/2000/svg" xmlns:xlink="http://www.w3.org/1999/xlink" xmlns:sketch="http://www.bohemiancoding.com/sketch/ns">
    <!-- Generator: Sketch 3.3.3 (12081) - http://www.bohemiancoding.com/sketch -->
    <title>chat-select-list-active</title>
    <desc>Created with Sketch.</desc>
    <defs></defs>
    <g id="Page-2" stroke="none" stroke-width="1" fill="none" fill-rule="evenodd" sketch:type="MSPage">
        <g id="Courselet---Error-Models" sketch:type="MSArtboardGroup" transform="translate(-364.000000, -278.000000)" fill="#43B02A">
            <g id="Message" sketch:type="MSLayerGroup" transform="translate(240.000000, 238.000000)">
                <g id="Error-Model" transform="translate(124.000000, 40.000000)" sketch:type="MSShapeGroup">
                    <g id="chat-select-list-active">
                        <path d="M2,22 L2,22 C2,33.0474063 10.9533447,42 22,42 C33.0474063,42 42,33.0466553 42,22 C42,10.9525937 33.0466553,2 22,2 C10.9525937,2 2,10.9533447 2,22 L2,22 Z M0,22 C0,9.8497355 9.84706399,0 22,0 C34.1502645,0 44,9.84706399 44,22 C44,34.1502645 34.152936,44 22,44 C9.8497355,44 0,34.152936 0,22 L0,22 Z" id="Shape"></path>
                        <path d="M30.1733886,15.7902842 C29.7841847,15.4030865 29.1548067,15.4030865 28.7666966,15.7911966 L19.1171874,25.4412058 L19.8242842,25.4411775 L15.2067842,20.8241775 C14.8166166,20.4340099 14.1838833,20.4340099 13.7931496,20.8237442 C13.4024345,21.2144588 13.4024345,21.8480412 13.7926966,22.2383034 L18.7426966,27.1883034 C18.8288713,27.2622765 18.8288713,27.2622765 18.8639564,27.2786253 C18.8642814,27.2788014 18.8642814,27.2788014 18.8639355,27.2786137 C18.8452346,27.2691212 18.8452346,27.2691212 18.7818543,27.2218783 C18.6867244,27.1160139 18.6867244,27.1160139 18.668076,27.0801139 C18.6662277,27.0765893 18.6662277,27.0765893 18.6666227,27.0773461 C18.6844405,27.1171094 18.6844405,27.1171094 18.7936578,27.2358606 C19.149035,27.5941418 19.7794703,27.5941418 20.1677605,27.2048457 L30.1742946,17.1988122 C30.5630655,16.8100412 30.5630655,16.1799588 30.1743034,15.7911966 L29.4671966,16.4983034 C29.4654345,16.4965412 29.4654345,16.4934588 29.4671966,16.4916966 L19.4602054,26.4981878 C19.4620297,26.4963582 19.465465,26.4963582 19.4673034,26.4981966 C19.5391845,26.5822656 19.5391845,26.5822656 19.5543773,26.6170289 C19.5542473,26.6167707 19.5542473,26.6167707 19.551864,26.6122261 C19.5309756,26.5722461 19.5309756,26.5722461 19.4608034,26.4886966 C19.3649054,26.4120988 19.3649054,26.4120988 19.3415245,26.4000303 C19.3406586,26.3995603 19.3406586,26.3995603 19.340464,26.3994549 C19.3690916,26.4122852 19.3690916,26.4122852 19.4758783,26.5093543 L14.4998034,21.5311966 C14.5000655,21.5314588 14.5000655,21.5310412 14.4998034,21.5313034 C14.4996167,21.5314901 14.4998834,21.5314901 14.4996966,21.5313034 L19.1172158,26.1483225 L19.4707783,26.5018468 L19.8243126,26.1482942 L29.4738126,16.4982942 C29.4716933,16.5004135 29.4693153,16.5004135 29.4681114,16.4992158 L30.1733886,15.7902842 L30.1733886,15.7902842 Z" id="Shape"></path>
                    </g>
                </g>
            </g>
        </g>
    </g>
</svg>